<?xml version="1.0" encoding="utf-8"?>
<!-- Generator: Adobe Illustrator 13.0.0, SVG Export Plug-In . SVG Version: 6.00 Build 14948)  -->
<!DOCTYPE svg PUBLIC "-//W3C//DTD SVG 1.1//EN" "http://www.w3.org/Graphics/SVG/1.1/DTD/svg11.dtd">
<svg version="1.1" id="Layer_1" xmlns="http://www.w3.org/2000/svg" xmlns:xlink="http://www.w3.org/1999/xlink" x="0px" y="0px"
	 width="300px" height="300px" viewBox="0 0 300 300" enable-background="new 0 0 300 300" xml:space="preserve">
<g>
	<circle fill="#FFFFFF" cx="150" cy="150" r="122.5"/>
	<g>
		<circle fill="none" cx="150" cy="150" r="122.5"/>
		<g>
			<path fill="#FFD2D2" d="M281.502,136.496c0,5.98-4.84,10.82-10.82,10.82c-5.975,0-10.818-4.84-10.818-10.82
				c0-5.977,4.844-10.82,10.818-10.82C276.662,125.676,281.502,130.52,281.502,136.496z"/>
		</g>
		<g>
			<path fill="#FFD2D2" d="M279.053,118.27c0,5.98-4.84,10.82-10.82,10.82c-5.975,0-10.818-4.84-10.818-10.82
				c0-5.977,4.844-10.82,10.818-10.82C274.213,107.449,279.053,112.293,279.053,118.27z"/>
		</g>
		<g>
			<path fill="#FFD2D2" d="M272.119,101.27c0,5.98-4.84,10.82-10.82,10.82c-5.975,0-10.818-4.84-10.818-10.82
				c0-5.977,4.844-10.82,10.818-10.82C267.279,90.449,272.119,95.293,272.119,101.27z"/>
		</g>
		<g>
			<path fill="#FFD2D2" d="M264.041,84.867c0,5.98-4.84,10.82-10.82,10.82c-5.975,0-10.818-4.84-10.818-10.82
				c0-5.977,4.844-10.82,10.818-10.82C259.201,74.047,264.041,78.891,264.041,84.867z"/>
		</g>
		<g>
			<path fill="#FFD2D2" d="M252.799,70.316c0,5.98-4.84,10.82-10.82,10.82c-5.975,0-10.818-4.84-10.818-10.82
				c0-5.977,4.844-10.82,10.818-10.82C247.959,59.496,252.799,64.34,252.799,70.316z"/>
		</g>
		<g>
			<path fill="#FFD2D2" d="M239.822,57.496c0,5.98-4.84,10.82-10.82,10.82c-5.975,0-10.818-4.84-10.818-10.82
				c0-5.977,4.844-10.82,10.818-10.82C234.982,46.676,239.822,51.52,239.822,57.496z"/>
		</g>
		<g>
			<path fill="#FFD2D2" d="M225.271,46.254c0,5.98-4.84,10.82-10.82,10.82c-5.975,0-10.818-4.84-10.818-10.82
				c0-5.977,4.844-10.82,10.818-10.82C220.432,35.434,225.271,40.277,225.271,46.254z"/>
		</g>
		<g>
			<path fill="#FFD2D2" d="M208.76,38.363c0,5.98-4.84,10.82-10.82,10.82c-5.975,0-10.818-4.84-10.818-10.82
				c0-5.977,4.844-10.82,10.818-10.82C203.92,27.543,208.76,32.387,208.76,38.363z"/>
		</g>
		<g>
			<path fill="#FFD2D2" d="M191.697,31.648c0,5.98-4.84,10.82-10.82,10.82c-5.975,0-10.818-4.84-10.818-10.82
				c0-5.977,4.844-10.82,10.818-10.82C186.857,20.828,191.697,25.672,191.697,31.648z"/>
		</g>
		<g>
			<path fill="#FFD2D2" d="M173.471,29.199c0,5.98-4.84,10.82-10.82,10.82c-5.975,0-10.818-4.84-10.818-10.82
				c0-5.977,4.844-10.82,10.818-10.82C168.631,18.379,173.471,23.223,173.471,29.199z"/>
		</g>
		<g>
			<path fill="#FFD2D2" d="M155.246,28.25c0,5.98-4.84,10.82-10.82,10.82c-5.975,0-10.818-4.84-10.818-10.82
				c0-5.977,4.844-10.82,10.818-10.82C150.406,17.43,155.246,22.273,155.246,28.25z"/>
		</g>
		<g>
			<path fill="#FFD2D2" d="M137.02,30.695c0,5.98-4.84,10.82-10.82,10.82c-5.975,0-10.818-4.84-10.818-10.82
				c0-5.977,4.844-10.82,10.818-10.82C132.18,19.875,137.02,24.719,137.02,30.695z"/>
		</g>
		<g>
			<path fill="#FFD2D2" d="M119.461,35.586c0,5.98-4.84,10.82-10.82,10.82c-5.975,0-10.818-4.84-10.818-10.82
				c0-5.977,4.844-10.82,10.818-10.82C114.621,24.766,119.461,29.609,119.461,35.586z"/>
		</g>
		<g>
			<path fill="#FFD2D2" d="M102.518,42.734c0,5.98-4.84,10.82-10.82,10.82c-5.975,0-10.818-4.84-10.818-10.82
				c0-5.977,4.844-10.82,10.818-10.82C97.678,31.914,102.518,36.758,102.518,42.734z"/>
		</g>
		<g>
			<path fill="#FFD2D2" d="M87.469,53.125c0,5.98-4.84,10.82-10.82,10.82c-5.975,0-10.818-4.84-10.818-10.82
				c0-5.977,4.844-10.82,10.818-10.82C82.629,42.305,87.469,47.148,87.469,53.125z"/>
		</g>
		<g>
			<path fill="#FFD2D2" d="M73.207,64.66c0,5.98-4.84,10.82-10.82,10.82c-5.975,0-10.818-4.84-10.818-10.82
				c0-5.977,4.844-10.82,10.818-10.82C68.367,53.84,73.207,58.684,73.207,64.66z"/>
		</g>
		<g>
			<path fill="#FFD2D2" d="M61.965,79.215c0,5.98-4.84,10.82-10.82,10.82c-5.975,0-10.818-4.84-10.818-10.82
				c0-5.977,4.844-10.82,10.818-10.82C57.125,68.395,61.965,73.238,61.965,79.215z"/>
		</g>
		<g>
			<path fill="#FFD2D2" d="M52.295,94.684c0,5.98-4.84,10.82-10.82,10.82c-5.975,0-10.818-4.84-10.818-10.82
				c0-5.977,4.844-10.82,10.818-10.82C47.455,83.863,52.295,88.707,52.295,94.684z"/>
		</g>
		<g>
			<path fill="#FFD2D2" d="M45.145,111.629c0,5.98-4.84,10.82-10.82,10.82c-5.975,0-10.818-4.84-10.818-10.82
				c0-5.977,4.844-10.82,10.818-10.82C40.305,100.809,45.145,105.652,45.145,111.629z"/>
		</g>
		<g>
			<path fill="#FFD2D2" d="M41.084,129.414c0,5.98-4.84,10.82-10.82,10.82c-5.975,0-10.818-4.84-10.818-10.82
				c0-5.977,4.844-10.82,10.818-10.82C36.244,118.594,41.084,123.438,41.084,129.414z"/>
		</g>
		<g>
			<path fill="#FFD2D2" d="M38.635,147.641c0,5.98-4.84,10.82-10.82,10.82c-5.975,0-10.818-4.84-10.818-10.82
				c0-5.977,4.844-10.82,10.818-10.82C33.795,136.82,38.635,141.664,38.635,147.641z"/>
		</g>
		<g>
			<path fill="#FFD2D2" d="M40.449,165.863c0,5.98-4.84,10.82-10.82,10.82c-5.975,0-10.818-4.84-10.818-10.82
				c0-5.977,4.844-10.82,10.818-10.82C35.609,155.043,40.449,159.887,40.449,165.863z"/>
		</g>
		<g>
			<path fill="#FFD2D2" d="M43.291,183.984c0,5.98-4.84,10.82-10.82,10.82c-5.975,0-10.818-4.84-10.818-10.82
				c0-5.977,4.844-10.82,10.818-10.82C38.451,173.164,43.291,178.008,43.291,183.984z"/>
		</g>
		<g>
			<path fill="#FFD2D2" d="M50.441,200.926c0,5.98-4.84,10.82-10.82,10.82c-5.975,0-10.818-4.84-10.818-10.82
				c0-5.977,4.844-10.82,10.818-10.82C45.602,190.105,50.441,194.949,50.441,200.926z"/>
		</g>
		<g>
			<path fill="#FFD2D2" d="M59.051,217.016c0,5.98-4.84,10.82-10.82,10.82c-5.975,0-10.818-4.84-10.818-10.82
				c0-5.977,4.844-10.82,10.818-10.82C54.211,206.195,59.051,211.039,59.051,217.016z"/>
		</g>
		<g>
			<path fill="#FFD2D2" d="M70.295,231.57c0,5.98-4.84,10.82-10.82,10.82c-5.975,0-10.818-4.84-10.818-10.82
				c0-5.977,4.844-10.82,10.818-10.82C65.455,220.75,70.295,225.594,70.295,231.57z"/>
		</g>
		<g>
			<path fill="#FFD2D2" d="M83.697,243.961c0,5.98-4.84,10.82-10.82,10.82c-5.975,0-10.818-4.84-10.818-10.82
				c0-5.977,4.844-10.82,10.818-10.82C78.857,233.141,83.697,237.984,83.697,243.961z"/>
		</g>
		<g>
			<path fill="#FFD2D2" d="M98.25,255.203c0,5.98-4.84,10.82-10.82,10.82c-5.975,0-10.818-4.84-10.818-10.82
				c0-5.977,4.844-10.82,10.818-10.82C93.41,244.383,98.25,249.227,98.25,255.203z"/>
		</g>
		<g>
			<path fill="#FFD2D2" d="M115.07,262.562c0,5.98-4.84,10.82-10.82,10.82c-5.975,0-10.818-4.84-10.818-10.82
				c0-5.977,4.844-10.82,10.818-10.82C110.23,251.742,115.07,256.586,115.07,262.562z"/>
		</g>
		<g>
			<path fill="#FFD2D2" d="M132.299,268.668c0,5.98-4.84,10.82-10.82,10.82c-5.975,0-10.818-4.84-10.818-10.82
				c0-5.977,4.844-10.82,10.818-10.82C127.459,257.848,132.299,262.691,132.299,268.668z"/>
		</g>
		<g>
			<path fill="#FFD2D2" d="M150.525,271.117c0,5.98-4.84,10.82-10.82,10.82c-5.975,0-10.818-4.84-10.818-10.82
				c0-5.977,4.844-10.82,10.818-10.82C145.686,260.297,150.525,265.141,150.525,271.117z"/>
		</g>
		<g>
			<path fill="#FFD2D2" d="M168.752,271.434c0,5.98-4.84,10.82-10.82,10.82c-5.975,0-10.818-4.84-10.818-10.82
				c0-5.977,4.844-10.82,10.818-10.82C163.912,260.613,168.752,265.457,168.752,271.434z"/>
		</g>
		<g>
			<path fill="#FFD2D2" d="M186.975,268.984c0,5.98-4.84,10.82-10.82,10.82c-5.975,0-10.818-4.84-10.818-10.82
				c0-5.977,4.844-10.82,10.818-10.82C182.135,258.164,186.975,263.008,186.975,268.984z"/>
		</g>
		<g>
			<path fill="#FFD2D2" d="M204.369,263.488c0,5.98-4.84,10.82-10.82,10.82c-5.975,0-10.818-4.84-10.818-10.82
				c0-5.977,4.844-10.82,10.818-10.82C199.529,252.668,204.369,257.512,204.369,263.488z"/>
		</g>
		<g>
			<path fill="#FFD2D2" d="M221.311,256.336c0,5.98-4.84,10.82-10.82,10.82c-5.975,0-10.818-4.84-10.818-10.82
				c0-5.977,4.844-10.82,10.818-10.82C216.471,245.516,221.311,250.359,221.311,256.336z"/>
		</g>
		<g>
			<path fill="#FFD2D2" d="M236.053,245.418c0,5.98-4.84,10.82-10.82,10.82c-5.975,0-10.818-4.84-10.818-10.82
				c0-5.977,4.844-10.82,10.818-10.82C231.213,234.598,236.053,239.441,236.053,245.418z"/>
		</g>
		<g>
			<path fill="#FFD2D2" d="M249.885,233.453c0,5.98-4.84,10.82-10.82,10.82c-5.975,0-10.818-4.84-10.818-10.82
				c0-5.977,4.844-10.82,10.818-10.82C245.045,222.633,249.885,227.477,249.885,233.453z"/>
		</g>
		<g>
			<path fill="#FFD2D2" d="M261.127,218.902c0,5.98-4.84,10.82-10.82,10.82c-5.975,0-10.818-4.84-10.818-10.82
				c0-5.977,4.844-10.82,10.818-10.82C256.287,208.082,261.127,212.926,261.127,218.902z"/>
		</g>
		<g>
			<path fill="#FFD2D2" d="M270.268,203.121c0,5.98-4.84,10.82-10.82,10.82c-5.975,0-10.818-4.84-10.818-10.82
				c0-5.977,4.844-10.82,10.818-10.82C265.428,192.301,270.268,197.145,270.268,203.121z"/>
		</g>
		<g>
			<path fill="#FFD2D2" d="M277.416,186.18c0,5.98-4.84,10.82-10.82,10.82c-5.975,0-10.818-4.84-10.818-10.82
				c0-5.977,4.844-10.82,10.818-10.82C272.576,175.359,277.416,180.203,277.416,186.18z"/>
		</g>
		<g>
			<path fill="#FFD2D2" d="M280.869,168.227c0,5.98-4.84,10.82-10.82,10.82c-5.975,0-10.818-4.84-10.818-10.82
				c0-5.977,4.844-10.82,10.818-10.82C276.029,157.406,280.869,162.25,280.869,168.227z"/>
		</g>
		<g>
			<path fill="#FFD2D2" d="M283.318,150c0,5.98-4.84,10.82-10.82,10.82c-5.975,0-10.818-4.84-10.818-10.82
				c0-5.977,4.844-10.82,10.818-10.82C278.479,139.18,283.318,144.023,283.318,150z"/>
		</g>
	</g>
</g>
<circle fill="#FFCCCC" stroke="#FFFFFF" stroke-width="3" cx="150" cy="150" r="120"/>
<circle fill="#FFCCCC" stroke="#FFFFFF" stroke-width="2" cx="150" cy="150" r="110"/>
<circle fill="#FFCCCC" stroke="#FFFFFF" cx="150" cy="150" r="100"/>
</svg>
